<?xml version="1.0" encoding="UTF-8" standalone="no"?>
<!-- Created with Inkscape (http://www.inkscape.org/) -->
<!DOCTYPE svg PUBLIC "-//W3C//DTD SVG 1.1//EN" "http://www.w3.org/Graphics/SVG/1.1/DTD/svg11.dtd">
<svg
   xmlns:svg="http://www.w3.org/2000/svg"
   xmlns="http://www.w3.org/2000/svg"
   version="1.0"
   width="375"
   height="375"
   id="svg1568">
  <defs
     id="defs1570" />
  <path
     d="m 299.74515,186.52923 c 0.01,-64.2215 -50.24663,-116.288617 -112.24423,-116.288617 -61.9976,0 -112.253886,52.067117 -112.244242,116.288617 -0.0096,64.22151 50.246642,116.28862 112.244242,116.28862 61.9976,0 112.25388,-52.06711 112.24423,-116.28862 l 0,0 z"
     id="path1580"
     style="fill:none;stroke:black;stroke-width:12.5;stroke-linecap:butt;stroke-linejoin:miter;stroke-miterlimit:4;stroke-opacity:1" />
  <path
     d="m 177.07812,128.98437 -44.9375,117.03125 17.4375,0 10.75,-29.6875 52.40625,0 11.4375,29.6875 18.6875,0 -47.90625,-117.03125 -17.875,0 z m 9.5,15.28125 c 6.17419,20.6251 13.69228,38.34337 21.03125,58.5625 l -42.5,0 21.46875,-58.5625 z"
     id="path3828"
     style="font-size:175.05732727px;fill:black;fill-opacity:1;stroke:none" />
</svg>
